<svg width="287" height="285" viewBox="0 0 287 285" fill="none" xmlns="http://www.w3.org/2000/svg">
<path d="M197.248 77.7566C196.449 72.5576 192.049 67.1876 187.936 64.5881C187.507 64.3031 187.08 64.0451 186.651 63.7886C177.339 70.2386 160.312 80.6711 140.316 83.8421C138.774 84.0986 136.888 83.7266 135.717 84.7841C132.033 88.0691 131.29 99.5531 122.178 99.8096C120.919 103.011 119.778 106.095 118.549 108.723C120.039 106.636 130.924 108.615 133.689 109.237C136.401 109.837 148.099 113.025 147.601 115.522C149.658 111.093 148.858 106.609 147.516 101.923C163.827 98.7821 186.423 87.2411 197.248 77.7566Z" fill="#FECFC4"/>
<path d="M54.5905 125.949C51.6894 128.737 48.0264 130.603 44.0647 131.31C40.1032 132.017 36.021 131.533 32.3344 129.92C28.6479 128.306 25.5225 125.636 23.3535 122.246C21.1845 118.857 20.0694 114.9 20.149 110.877C20.2288 106.854 21.4998 102.944 23.8014 99.6434C26.1028 96.3424 29.3316 93.7981 33.0792 92.3321C36.8268 90.8662 40.9249 90.5446 44.8554 91.4077C48.7858 92.2709 52.372 94.2801 55.1605 97.1816C57.0136 99.107 58.4691 101.379 59.4435 103.867C60.4179 106.355 60.8922 109.011 60.8394 111.683C60.7864 114.355 60.2073 116.99 59.1349 119.438C58.0627 121.886 56.5185 124.098 54.5905 125.949Z" fill="#FECFC4"/>
<path d="M273.233 205.905C275.29 198.792 282.146 200.962 285.917 196.677C286.603 203.22 283.003 209.79 276.49 210.103L273.233 205.905Z" fill="#FECFC4"/>
<path d="M118.206 219.987C115.606 221.502 110.751 218.359 105.438 212.359C105.53 214.429 106.118 216.448 107.15 218.245C110.75 224.986 110.58 241.612 114.579 240.445C115.693 240.102 117.007 234.445 118.179 227.962C118.785 224.83 119.586 221.739 120.579 218.706C120.082 218.959 118.704 219.655 118.206 219.987Z" fill="#2196BA"/>
<path d="M134.832 76.729C135.356 78.2541 136.128 79.6822 137.118 80.956C139.63 80.5855 142.423 79.8235 142.944 78.6715C143.035 78.4774 143.111 78.2769 143.173 78.0715C142.516 80.1565 138.717 78.757 134.832 76.729Z" fill="#2196BA"/>
<path d="M138.202 61.3885C133.146 56.0755 116.664 60.2455 105.495 68.3305C94.2685 76.4425 97.4965 84.0415 112.036 80.557C111.18 80.8135 101.866 83.6125 95.782 90.607C86.8405 100.891 94.6105 104.833 104.632 102.776C116.601 100.319 126.885 90.493 130.369 83.6935C131.97 79.6874 133.055 75.4943 133.6 71.215C129.43 67.816 131.973 64.7305 134.257 67.0735C135.486 68.3305 136.857 67.7305 135.343 63.6235C136.869 62.677 138.7 62.374 138.202 61.3885Z" fill="#2196BA"/>
<path d="M176.338 227.471C175.81 220.688 175.887 213.872 176.566 207.103C171.147 208.633 165.397 208.544 160.027 206.846C160.141 211.589 158.656 213.988 159.885 216.931C160.623 218.581 161.67 220.073 162.969 221.329C168.34 226.757 172.939 242.753 176.452 240.469C177.424 239.837 177.052 234.041 176.338 227.471Z" fill="#2196BA"/>
<path d="M122.605 107.809C122.348 109.135 121.946 110.428 121.405 111.665C116.749 109.351 117.835 107.837 122.605 107.809Z" fill="#2196BA"/>
<path d="M147.63 115.488C147.514 116.031 146.743 116.374 145.458 116.537C145.944 115.652 146.373 114.852 146.743 114.052C147.4 114.607 147.714 115.093 147.63 115.488Z" fill="#6153BD"/>
<path d="M160.426 159.313L157.426 167.911C157.312 164.569 157.198 161.284 157.139 158.056L160.426 159.313Z" fill="#6153BD"/>
<path d="M57.8364 220.015C50.1654 206.884 39.9864 195.7 35.1774 197.552C28.6689 200.06 37.4994 220.172 42.5634 228.956C51.076 243.697 61.3599 253.694 65.6499 251.387C71.8854 247.913 61.6989 226.625 57.8364 220.015Z" fill="#2196BA"/>
<path d="M110.579 189.079C102.124 174.453 91.8684 164.569 87.6399 167.029C83.3844 169.485 86.8119 183.312 95.2389 197.937C103.666 212.562 113.95 222.418 118.177 219.987C122.434 217.531 119.006 203.704 110.579 189.079Z" fill="#2196BA"/>
<path d="M120.577 218.701C119.588 221.734 118.786 224.825 118.177 227.957C117.019 234.443 115.695 240.107 114.577 240.44C110.586 241.64 110.736 224.99 107.149 218.24C106.114 216.445 105.526 214.426 105.436 212.354" stroke="#120071" stroke-width="1.5" stroke-linecap="round" stroke-linejoin="round"/>
<path d="M219.443 111.208C218.873 110.286 218.108 109.5 217.201 108.906C216.293 108.312 215.267 107.925 214.193 107.773C213.119 107.62 212.026 107.705 210.989 108.022C209.953 108.339 208.997 108.881 208.193 109.608C207.875 108.522 207.31 107.525 206.545 106.694C205.778 105.862 204.83 105.218 203.774 104.812C202.72 104.405 201.584 104.248 200.458 104.351C199.331 104.454 198.245 104.816 197.281 105.408C196.447 105.921 195.722 106.594 195.149 107.388C194.575 108.182 194.164 109.082 193.939 110.035C192.752 109.141 191.324 108.626 189.841 108.557C188.357 108.489 186.887 108.87 185.624 109.651C184.361 110.433 183.364 111.578 182.762 112.936C182.161 114.294 181.985 115.802 182.255 117.262C181.291 117.009 180.286 116.953 179.3 117.095C178.313 117.238 177.367 117.576 176.513 118.092C175.55 118.683 174.737 119.487 174.134 120.443C173.531 121.398 173.156 122.479 173.038 123.602C172.919 124.726 173.06 125.861 173.45 126.922C173.839 127.982 174.467 128.939 175.285 129.718C174.283 130.113 173.38 130.722 172.639 131.502C171.898 132.283 171.335 133.216 170.993 134.236C170.65 135.257 170.534 136.34 170.654 137.409C170.773 138.479 171.125 139.51 171.685 140.43C172.466 141.722 173.635 142.737 175.022 143.331C176.411 143.925 177.952 144.069 179.426 143.743L219.304 119.293C220.307 118.689 221.527 114.573 219.443 111.208Z" stroke="#120071" stroke-width="1.5" stroke-linecap="round" stroke-linejoin="round"/>
<path d="M189.193 122.548C190.135 123.436 190.743 124.621 190.914 125.905C191.085 127.188 190.809 128.491 190.131 129.594C189.453 130.698 188.416 131.534 187.195 131.963C185.973 132.391 184.641 132.386 183.423 131.947" stroke="#120071" stroke-width="1.5" stroke-linecap="round" stroke-linejoin="round"/>
<path d="M206.961 117.521C206.802 118.677 206.292 119.755 205.497 120.609C204.702 121.463 203.662 122.05 202.522 122.291C201.381 122.532 200.193 122.414 199.12 121.954C198.049 121.494 197.146 120.714 196.534 119.72C196.275 119.292 196.074 118.831 195.934 118.349" stroke="#120071" stroke-width="1.5" stroke-linecap="round" stroke-linejoin="round"/>
<path d="M208.189 109.608C207.421 110.332 206.783 111.183 206.303 112.123" stroke="#120071" stroke-width="1.5" stroke-linecap="round" stroke-linejoin="round"/>
<path d="M177.886 129.237C177 129.281 176.124 129.444 175.281 129.72" stroke="#120071" stroke-width="1.5" stroke-linecap="round" stroke-linejoin="round"/>
<path d="M193.935 110.036C193.747 110.967 193.717 111.923 193.843 112.864" stroke="#120071" stroke-width="1.5" stroke-linecap="round" stroke-linejoin="round"/>
<path d="M185.081 118.588C184.225 117.982 183.266 117.533 182.251 117.264" stroke="#120071" stroke-width="1.5" stroke-linecap="round" stroke-linejoin="round"/>
<path d="M229.613 127.719C227.494 124.228 223.12 123.606 222.358 124.177L182.45 148.659C181.309 149.344 179.741 153.492 181.909 156.999C182.473 157.915 183.23 158.698 184.127 159.291C185.026 159.885 186.043 160.273 187.108 160.431C188.173 160.587 189.259 160.509 190.291 160.201C191.321 159.894 192.274 159.364 193.078 158.649C193.535 160.222 194.507 161.598 195.836 162.556C197.165 163.515 198.776 164.001 200.414 163.939C202.052 163.876 203.623 163.269 204.875 162.211C206.128 161.155 206.99 159.709 207.328 158.106C208.507 159.009 209.932 159.535 211.415 159.615C212.899 159.696 214.372 159.325 215.642 158.553C216.911 157.78 217.918 156.643 218.53 155.289C219.14 153.934 219.328 152.427 219.068 150.964C220.651 151.365 222.322 151.228 223.819 150.577C225.316 149.925 226.555 148.794 227.339 147.363C228.124 145.93 228.41 144.279 228.154 142.665C227.897 141.053 227.113 139.571 225.923 138.453C226.936 138.068 227.852 137.466 228.607 136.688C229.36 135.91 229.934 134.976 230.287 133.951C230.638 132.926 230.761 131.837 230.644 130.76C230.528 129.683 230.176 128.644 229.613 127.719Z" stroke="#120071" stroke-width="1.5" stroke-linecap="round" stroke-linejoin="round"/>
<path d="M205.76 149.572C205.466 148.578 204.905 147.684 204.137 146.988C203.369 146.292 202.426 145.821 201.407 145.626C200.389 145.431 199.337 145.521 198.367 145.884C197.396 146.248 196.544 146.871 195.905 147.687C195.28 148.492 194.876 149.448 194.734 150.457" stroke="#120071" stroke-width="1.5" stroke-linecap="round" stroke-linejoin="round"/>
<path d="M218.302 136.037C217.203 135.658 216.012 135.626 214.893 135.948C213.775 136.269 212.782 136.927 212.052 137.833C211.321 138.739 210.886 139.848 210.81 141.009C210.732 142.17 211.014 143.327 211.617 144.322C211.875 144.754 212.193 145.148 212.56 145.493" stroke="#120071" stroke-width="1.5" stroke-linecap="round" stroke-linejoin="round"/>
<path d="M225.928 138.46C224.921 138.832 223.858 139.025 222.785 139.031" stroke="#120071" stroke-width="1.5" stroke-linecap="round" stroke-linejoin="round"/>
<path d="M194.659 156.588C194.232 157.35 193.699 158.047 193.078 158.662" stroke="#120071" stroke-width="1.5" stroke-linecap="round" stroke-linejoin="round"/>
<path d="M219.073 150.971C218.154 150.707 217.284 150.295 216.498 149.75" stroke="#120071" stroke-width="1.5" stroke-linecap="round" stroke-linejoin="round"/>
<path d="M207.414 155.053C207.55 156.071 207.522 157.103 207.333 158.113" stroke="#120071" stroke-width="1.5" stroke-linecap="round" stroke-linejoin="round"/>
<path d="M182.451 148.658L178.195 151.228" stroke="#120071" stroke-width="1.5" stroke-linecap="round" stroke-linejoin="round"/>
<path d="M179.424 143.745L175.224 146.287" stroke="#120071" stroke-width="1.5" stroke-linecap="round" stroke-linejoin="round"/>
<path d="M157.285 163.941L111.922 191.478" stroke="#120071" stroke-width="1.5" stroke-linecap="round" stroke-linejoin="round"/>
<path d="M156.37 157.741L109.036 186.508" stroke="#120071" stroke-width="1.5" stroke-linecap="round" stroke-linejoin="round"/>
<path d="M196.648 78.271C206.807 77.3313 217.022 79.3468 226.063 84.0751C235.103 88.8033 242.587 96.0429 247.61 104.923C262.784 131.001 254.836 164.68 229.87 180.138C214.253 189.807 209.92 184.695 179.594 193.338" stroke="#120071" stroke-width="1.5" stroke-linecap="round" stroke-linejoin="round"/>
<path d="M118.504 219.764C132.376 212.53 144.773 206.206 157.541 200.99" stroke="#120071" stroke-width="1.5" stroke-linecap="round" stroke-linejoin="round"/>
<path d="M120.091 142.687C110.466 150.4 99.9236 157.914 87.6116 166.998" stroke="#120071" stroke-width="1.5" stroke-linecap="round" stroke-linejoin="round"/>
<path d="M161.455 97.8385C155.469 106.839 148.752 115.333 141.373 123.234" stroke="#120071" stroke-width="1.5" stroke-linecap="round" stroke-linejoin="round"/>
<path d="M186.622 63.8171C191.449 66.5306 196.363 72.1016 197.248 77.7566C186.421 87.2411 163.827 98.7821 147.516 101.923C148.858 106.609 149.658 111.094 147.601 115.522C148.099 113.028 136.572 109.881 133.689 109.237C130.875 108.609 120.027 106.656 118.549 108.723C119.778 106.095 120.921 103.009 122.178 99.8096C131.29 99.5531 132.018 88.0526 135.717 84.7841C136.882 83.7551 138.717 84.1001 140.316 83.8421C160.3 80.5916 177.339 70.2446 186.651 63.7886L186.622 63.8171Z" stroke="#120071" stroke-width="1.5" stroke-linecap="round" stroke-linejoin="round"/>
<path d="M120.184 113.807C128.362 113.677 136.416 115.817 143.452 119.987" stroke="#120071" stroke-width="1.5" stroke-linecap="round" stroke-linejoin="round"/>
<path d="M143.041 78.3761C142.11 80.0051 138.51 78.6491 134.832 76.7261C135.356 78.2513 136.128 79.6796 137.118 80.9531" stroke="#120071" stroke-width="1.5" stroke-linecap="round" stroke-linejoin="round"/>
<path d="M139.256 83.9486C137.266 83.4596 137.798 82.4906 137.117 80.9561C142.487 80.1626 143.417 79.1741 143.197 76.4831C142.874 72.5741 140.579 64.057 138.202 61.3885" stroke="#120071" stroke-width="1.5" stroke-linecap="round" stroke-linejoin="round"/>
<path d="M147.515 101.923C145.858 102.238 144.259 102.466 142.772 102.61" stroke="#120071" stroke-width="1.5" stroke-linecap="round" stroke-linejoin="round"/>
<path d="M135.346 63.6175C136.86 67.7305 135.496 68.3305 134.26 67.0675C131.974 64.726 129.433 67.8175 133.603 71.209C133.059 75.4898 131.975 79.6843 130.375 83.692C126.891 90.4915 116.607 100.318 104.638 102.775C94.6106 104.832 86.8406 100.89 95.7881 90.6055C101.872 83.6065 111.186 80.8075 112.042 80.5555C97.5026 84.04 94.2776 76.4455 105.501 68.329C116.673 60.2485 133.152 56.074 138.208 61.387C138.691 62.365 136.815 62.71 135.346 63.6175Z" stroke="#2A215B" stroke-width="1.5" stroke-linecap="round" stroke-linejoin="round"/>
<path d="M122.177 99.8095C123.686 95.7274 125.63 91.8199 127.976 88.1545C128.904 86.7668 129.698 85.2941 130.346 83.7565" stroke="#120071" stroke-width="1.5" stroke-linecap="round" stroke-linejoin="round"/>
<path d="M141.417 123.189C143.398 120.271 145.181 117.226 146.758 114.072" stroke="#120071" stroke-width="1.5" stroke-linecap="round" stroke-linejoin="round"/>
<path d="M203.476 62.4175C207.789 61.3885 211.339 63.3325 211.045 64.9885C210.979 65.3205 210.843 65.6346 210.646 65.9101C210.448 66.1858 210.196 66.4165 209.904 66.5875" stroke="#120071" stroke-width="1.5" stroke-linecap="round" stroke-linejoin="round"/>
<path d="M203.075 59.7895C207.617 58.7035 212.131 60.9895 210.188 63.3895" stroke="#120071" stroke-width="1.5" stroke-linecap="round" stroke-linejoin="round"/>
<path d="M196.762 75.7C199.45 72.6319 202.898 70.3265 206.761 69.016" stroke="#120071" stroke-width="1.5" stroke-linecap="round" stroke-linejoin="round"/>
<path d="M203.303 65.5015C207.503 64.645 210.269 66.301 210.103 67.93C209.897 69.9295 205.903 72.958 202.532 71.0155" stroke="#120071" stroke-width="1.5" stroke-linecap="round" stroke-linejoin="round"/>
<path d="M199.762 58.2745C199.819 58.2175 201.562 55.7905 200.791 55.018C200.134 54.361 190.649 62.1595 187.993 64.645" stroke="#120071" stroke-width="1.5" stroke-linecap="round" stroke-linejoin="round"/>
<path d="M205.218 59.503C212.76 55.876 214.785 51.5005 213.36 52.303C208.605 54.6835 203.721 56.8006 198.733 58.645C194.872 60.114 191.245 62.1349 187.965 64.645" stroke="#120071" stroke-width="1.5" stroke-linecap="round" stroke-linejoin="round"/>
<path d="M176.566 207.103C175.893 213.873 175.816 220.689 176.338 227.472C177.066 234.04 177.423 239.839 176.452 240.469C172.936 242.751 168.33 226.768 162.969 221.329C161.667 220.075 160.62 218.581 159.885 216.931C158.653 213.984 160.146 211.581 160.026 206.823" stroke="#120071" stroke-width="1.5" stroke-linecap="round" stroke-linejoin="round"/>
<path d="M110.58 189.079C119.017 203.698 122.437 217.536 118.177 219.979C113.953 222.412 103.666 212.553 95.2391 197.929C86.8121 183.306 83.3876 169.488 87.6401 167.026C91.8926 164.565 102.135 174.447 110.58 189.079Z" stroke="#120071" stroke-width="1.5" stroke-linecap="round" stroke-linejoin="round"/>
<path d="M67.2219 243.335C65.0859 230.041 52.2459 207.922 41.8209 199.935C36.4359 195.763 32.5794 196.501 33.0204 203.497C33.8574 216.772 48.6399 242.383 59.6739 249.898C65.7999 254.068 68.4339 250.882 67.2219 243.335Z" stroke="#120071" stroke-width="1.5" stroke-linecap="round" stroke-linejoin="round"/>
<path d="M65.9334 251.237L74.4144 246.331C75.2314 245.69 75.7869 244.774 75.9763 243.754C76.1658 242.734 75.9762 241.679 75.4434 240.788C78.8184 245.872 85.4409 240.623 82.7844 236.218C85.2489 240.418 92.9979 237.706 89.8119 231.334C90.534 232.27 91.5631 232.919 92.7178 233.17C93.8725 233.422 95.0788 233.257 96.1239 232.705C99.5739 230.503 98.2944 226.22 96.1539 219.25C92.1501 207.278 85.7986 196.225 77.4714 186.737C75.4701 184.354 73.1788 182.228 70.6509 180.413C66.6534 177.934 62.1564 179.792 63.7029 186.538C62.4309 184.418 60.9384 183.032 58.4169 183.709C57.7803 183.886 57.1933 184.208 56.7021 184.649C56.2107 185.092 55.8283 185.641 55.585 186.256C55.3416 186.869 55.2438 187.532 55.2993 188.191C55.3546 188.849 55.5618 189.485 55.9044 190.051C55.9044 190.051 52.9449 186.31 49.5909 188.966C48.7579 189.616 48.1968 190.552 48.0171 191.591C47.8374 192.632 48.0519 193.702 48.6189 194.593C48.3489 194.116 47.9871 193.699 47.5545 193.363C47.1219 193.027 46.6272 192.781 46.0986 192.637C45.5701 192.493 45.0186 192.457 44.4756 192.527C43.9326 192.598 43.4092 192.776 42.9354 193.051L34.9524 197.644" stroke="#120071" stroke-width="1.5" stroke-linecap="round" stroke-linejoin="round"/>
<path d="M273.234 205.905C269.71 207.85 266.332 210.046 263.122 212.475C253.693 219.757 244.497 228.9 245.722 230.5C246.948 232.101 258.094 225.534 267.546 218.245C270.714 215.755 273.693 213.034 276.459 210.103" stroke="#120071" stroke-width="1.5" stroke-linecap="round" stroke-linejoin="round"/>
<path d="M273.233 205.905C275.29 198.792 282.146 200.962 285.917 196.677C286.603 203.22 283.003 209.789 276.49 210.103L273.233 205.905Z" stroke="#120071" stroke-width="1.5" stroke-linecap="round" stroke-linejoin="round"/>
<path d="M264.307 211.579L268.72 217.301" stroke="#120071" stroke-width="1.5" stroke-linecap="round" stroke-linejoin="round"/>
<path d="M279.948 69.073L276.205 77.4565H283.06L279.289 85.8415" stroke="#120071" stroke-width="1.5" stroke-linecap="round" stroke-linejoin="round"/>
<path d="M146.743 276.148L131.546 276.604" stroke="#120071" stroke-width="1.5" stroke-linecap="round" stroke-linejoin="round"/>
<path d="M139.374 283.975L138.916 268.777" stroke="#120071" stroke-width="1.5" stroke-linecap="round" stroke-linejoin="round"/>
<path d="M122.605 107.809C122.348 109.135 121.946 110.428 121.405 111.665C116.749 109.351 117.835 107.837 122.605 107.809Z" stroke="#120071" stroke-width="1.5" stroke-linecap="round" stroke-linejoin="round"/>
<path d="M147.601 115.522C147.463 116.039 146.73 116.377 145.489 116.545" stroke="#120071" stroke-width="1.5" stroke-linecap="round" stroke-linejoin="round"/>
<path d="M122.605 107.809C122.137 111.054 120.489 114.013 117.977 116.12C106.751 125.033 106.577 137.516 114.778 146.858" stroke="#120071" stroke-width="1.5" stroke-linecap="round" stroke-linejoin="round"/>
<path d="M34.4529 197.956L21.7959 205.132" stroke="#120071" stroke-width="1.5" stroke-linecap="round" stroke-linejoin="round"/>
<path d="M65.353 251.551L53.9905 258.18" stroke="#120071" stroke-width="1.5" stroke-linecap="round" stroke-linejoin="round"/>
<path d="M48.5049 261.635L40.0779 266.549" stroke="#120071" stroke-width="1.5" stroke-linecap="round" stroke-linejoin="round"/>
<path d="M15.9115 208.818L7.31348 213.703" stroke="#120071" stroke-width="1.5" stroke-linecap="round" stroke-linejoin="round"/>
<path d="M42.5919 228.957L14.9109 245.325" stroke="#120071" stroke-width="1.5" stroke-linecap="round" stroke-linejoin="round"/>
<path d="M9.3985 248.782L1 253.666" stroke="#120071" stroke-width="1.5" stroke-linecap="round" stroke-linejoin="round"/>
<path d="M54.5905 125.948C51.6894 128.737 48.0264 130.603 44.0647 131.31C40.1032 132.016 36.021 131.533 32.3344 129.919C28.6479 128.306 25.5225 125.636 23.3535 122.246C21.1845 118.857 20.0694 114.9 20.149 110.877C20.2288 106.854 21.4998 102.944 23.8014 99.6433C26.1028 96.3422 29.3316 93.7979 33.0792 92.332C36.8268 90.866 40.9249 90.5444 44.8554 91.4075C48.7858 92.2708 52.372 94.28 55.1605 97.1815C57.0136 99.1069 58.4691 101.379 59.4435 103.867C60.4179 106.355 60.8922 109.011 60.8394 111.683C60.7864 114.355 60.2073 116.99 59.1349 119.438C58.0627 121.886 56.5185 124.098 54.5905 125.948Z" stroke="#120071" stroke-width="1.5" stroke-linecap="round" stroke-linejoin="round"/>
<path d="M60.8169 112.488C67.1305 115.488 70.867 118.338 70.33 120.138C69.3685 123.388 55.1604 122.137 38.5644 117.337C21.9684 112.537 9.27995 106.008 10.2264 102.753C10.7664 100.894 15.568 100.495 22.6764 101.382" stroke="#120071" stroke-width="1.5" stroke-linecap="round" stroke-linejoin="round"/>
<path d="M115.9 133.717C116.728 138.916 119.65 143.683 123.584 144.916C135.871 148.759 157.148 158.084 157.148 158.084C157.414 172.796 158.746 188.984 157.321 205.904C164.134 208.772 171.781 208.945 178.717 206.389C179.917 190.421 180.686 175.109 180.401 160.969C180.337 157.45 179.522 153.986 178.01 150.808C176.497 147.631 174.323 144.812 171.632 142.544C160.531 133.367 148.153 125.852 134.888 120.235" stroke="#120071" stroke-width="1.5" stroke-linecap="round" stroke-linejoin="round"/>
<path d="M157.141 158.084L160.426 159.313L157.428 167.911" stroke="#120071" stroke-width="1.5" stroke-linecap="round" stroke-linejoin="round"/>
<path d="M157.914 194.62C164.859 197.003 172.336 197.369 179.481 195.677" stroke="#120071" stroke-width="1.5" stroke-linecap="round" stroke-linejoin="round"/>
<path d="M151.628 1V5.7715" stroke="#120071" stroke-width="1.5" stroke-linecap="round" stroke-linejoin="round"/>
<path d="M160.912 10.2836H156.141" stroke="#120071" stroke-width="1.5" stroke-linecap="round" stroke-linejoin="round"/>
<path d="M151.628 19.5685V14.797" stroke="#120071" stroke-width="1.5" stroke-linecap="round" stroke-linejoin="round"/>
<path d="M142.345 10.2836H147.118" stroke="#120071" stroke-width="1.5" stroke-linecap="round" stroke-linejoin="round"/>
<path d="M156.14 10.2835C155.548 10.285 154.96 10.1695 154.412 9.9433C153.863 9.7171 153.365 9.3847 152.947 8.96545C152.527 8.5462 152.195 8.0482 151.969 7.49995C151.742 6.95188 151.627 6.36445 151.628 5.77148C151.63 6.36433 151.514 6.95164 151.288 7.49965C151.063 8.04775 150.73 8.5456 150.311 8.965C149.891 9.38425 149.393 9.7165 148.846 9.94285C148.298 10.169 147.71 10.2848 147.118 10.2835C147.71 10.2821 148.298 10.3979 148.846 10.6243C149.395 10.8506 149.893 11.183 150.311 11.6026C150.73 12.022 151.063 12.5201 151.289 13.0684C151.514 13.6165 151.63 14.204 151.628 14.797C151.627 14.2039 151.742 13.6163 151.969 13.0679C152.194 12.5197 152.527 12.0214 152.945 11.602C153.365 11.1826 153.863 10.8502 154.411 10.6238C154.96 10.3975 155.548 10.2818 156.14 10.2835Z" stroke="#120071" stroke-width="1.5" stroke-linecap="round" stroke-linejoin="round"/>
</svg>
